# xmcd
# 
# Track frame offsets:
#     150
#     7340
#     43160
#     71627
#     76095
#     98700
#     127110
#     142685
#     147817
# 
# Disc length: 2284
# 
# Revision: 1
# Processed by: cddbd v1.5.2PL0 Copyright (c) Steve Scherf et al.
# Submitted via: BonkEnc v1.0.8
# 
DISCID=7808ea09
DTITLE=生活向上委員会大管弦楽団 - Dance Dance Dance
DYEAR=1980
DGENRE=Contemporary Jazz
TTITLE0=浪路はるかに
TTITLE1=ワナオキ
TTITLE2=A Night In Tunisia
TTITLE3=Take The "A" Train
TTITLE4=Shackin' To Me
TTITLE5=St. Thomas
TTITLE6=会歌二態
TTITLE7=変態七拍子
TTITLE8=うわさの生向委
EXTD=YEAR: 1981
EXTT0=
EXTT1=
EXTT2=
EXTT3=
EXTT4=
EXTT5=
EXTT6=
EXTT7=
EXTT8=
PLAYORDER=
